# xmcd
#
# Track frame offsets:
#	150
#	22600
#	38200
#	57668
#	76363
#	94383
#	111313
#	130770
#	147763
#	164688
#	183568
#	201638
#	223538
#	247213
#	267260
#
# Disc length: 3767 seconds
#
# Revision: 6
# Processed by: cddbd v1.5.2PL0 Copyright (c) Steve Scherf et al.
# Submitted via: EasyCDDAExtractor 7.0.4.1
#
DISCID=e60eb50f
DTITLE=譚詠麟 - 百花齊放
DYEAR=2005
DGENRE=Other
TTITLE0=無言感激
TTITLE1=曾經
TTITLE2=痴心的廢墟
TTITLE3=Don't Say Goodbye
TTITLE4=水中花
TTITLE5=80歲後
TTITLE6=知心當玩偶
TTITLE7=情不變
TTITLE8=半夢半醒
TTITLE9=牆上的肖像
TTITLE10=第一滴淚\
TTITLE11=不見不散
TTITLE12=無邊的思憶
TTITLE13=愛的逃兵
TTITLE14=愛在陽光空氣中
EXTD=
EXTT0=
EXTT1=
EXTT2=
EXTT3=
EXTT4=
EXTT5=
EXTT6=
EXTT7=
EXTT8=
EXTT9=
EXTT10=
EXTT11=
EXTT12=
EXTT13=
EXTT14=
PLAYORDER=
